<svg preserveAspectRatio="xMidYMid meet" overflow="visible" width="15.0564" height="17.1372" viewBox="0 0 15.0564 17.1372" fill="none" xmlns="http://www.w3.org/2000/svg">
<g id="Group">
<path id="Vector" d="M15.0483 4.29091C14.0687 4.29091 13.165 3.96641 12.4392 3.41898C11.6068 2.79144 11.0088 1.8709 10.7976 0.809909C10.7453 0.547761 10.7171 0.277233 10.7144 0H7.9163V7.64586L7.91295 11.8339C7.91295 12.9535 7.18383 13.9029 6.17312 14.2368C5.8798 14.3336 5.56301 14.3796 5.23314 14.3615C4.8121 14.3383 4.41753 14.2113 4.0746 14.0061C3.34481 13.5697 2.85001 12.7779 2.8366 11.8721C2.81548 10.4564 3.95995 9.30222 5.37461 9.30222C5.65385 9.30222 5.92203 9.34781 6.17312 9.43061V7.34081V6.58956C5.90829 6.55034 5.63877 6.52989 5.36623 6.52989C3.81781 6.52989 2.36963 7.17353 1.33445 8.33308C0.552029 9.20936 0.0827104 10.3273 0.0103013 11.4996C-0.084568 13.0397 0.478949 14.5036 1.57179 15.5837C1.73236 15.7423 1.90098 15.8894 2.07731 16.0252C3.01427 16.7463 4.15974 17.1372 5.36623 17.1372C5.63877 17.1372 5.90829 17.117 6.17312 17.0778C7.30015 16.9109 8.34003 16.395 9.16066 15.5837C10.169 14.5871 10.7262 13.2639 10.7322 11.8556L10.7178 5.60165C11.1988 5.97274 11.7248 6.27981 12.2893 6.51816C13.1673 6.88859 14.0982 7.07631 15.0563 7.07598V5.04417V4.29024C15.057 4.29091 15.0489 4.29091 15.0483 4.29091Z" fill="#67030b"/>
</g>
</svg>
